HIERARCHY
ROOT Hips
{
  OFFSET 279.157 85.6768 304.565
  CHANNELS 6 Xposition Yposition Zposition Zrotation Xrotation Yrotation
  JOINT LeftUpLeg
  {
    OFFSET 8.64259 1.95398 -2.38835
    CHANNELS 3 Zrotation Xrotation Yrotation
    JOINT LeftLeg
    {
      OFFSET 43.7702 0 0
      CHANNELS 3 Zrotation Xrotation Yrotation
      JOINT LeftFoot
      {
        OFFSET 40.6238 0 0
        CHANNELS 3 Zrotation Xrotation Yrotation
        JOINT LeftToeBase
        {
          OFFSET 12.7242 0 0
          CHANNELS 3 Zrotation Xrotation Yrotation
          End Site
          {
            OFFSET 0 0 0
          }
        }
      }
    }
  }
  JOINT RightUpLeg
  {
    OFFSET -8.2249 1.95398 -2.59336
    CHANNELS 3 Zrotation Xrotation Yrotation
    JOINT RightLeg
    {
      OFFSET 43.5653 0 0
      CHANNELS 3 Zrotation Xrotation Yrotation
      JOINT RightFoot
      {
        OFFSET 40.6238 0 0
        CHANNELS 3 Zrotation Xrotation Yrotation
        JOINT RightToeBase
        {
          OFFSET 12.7242 0 0
          CHANNELS 3 Zrotation Xrotation Yrotation
          End Site
          {
            OFFSET 0 0 0
          }
        }
      }
    }
  }
  JOINT Spine
  {
    OFFSET 0.165834 0.87714 6.61349
    CHANNELS 3 Zrotation Xrotation Yrotation
    JOINT Spine1
    {
      OFFSET 7.38963 1.71661e-005 0
      CHANNELS 3 Zrotation Xrotation Yrotation
      JOINT Spine2
      {
        OFFSET 11.9445 1.14441e-005 0
        CHANNELS 3 Zrotation Xrotation Yrotation
        JOINT Spine3
        {
          OFFSET 14.7254 4.19617e-005 0
          CHANNELS 3 Zrotation Xrotation Yrotation
          JOINT Spine4
          {
            OFFSET 10.9679 0 0
            CHANNELS 3 Zrotation Xrotation Yrotation
            JOINT RightShoulder
            {
              OFFSET 2.46616 -1.6653 3.69651
              CHANNELS 3 Zrotation Xrotation Yrotation
              JOINT RightArm
              {
                OFFSET 13.0012 0 0
                CHANNELS 3 Zrotation Xrotation Yrotation
                JOINT RightForeArm
                {
                  OFFSET 28.7848 1.52588e-005 0
                  CHANNELS 3 Zrotation Xrotation Yrotation
                  JOINT RightHand
                  {
                    OFFSET 26.5688 1.52588e-005 0
                    CHANNELS 3 Zrotation Xrotation Yrotation
                    End Site
                    {
                      OFFSET 0 0 0
                    }
                  }
                }
              }
            }
            JOINT LeftShoulder
            {
              OFFSET 2.38034 -1.29275 -3.7523
              CHANNELS 3 Zrotation Xrotation Yrotation
              JOINT LeftArm
              {
                OFFSET 16.3182 6.10351e-005 0
                CHANNELS 3 Zrotation Xrotation Yrotation
                JOINT LeftForeArm
                {
                  OFFSET 27.0901 0 0
                  CHANNELS 3 Zrotation Xrotation Yrotation
                  JOINT LeftHand
                  {
                    OFFSET 24.5451 1.52588e-005 0
                    CHANNELS 3 Zrotation Xrotation Yrotation
                    End Site
                    {
                      OFFSET 0 0 0
                    }
                  }
                }
              }
            }
            JOINT Neck
            {
              OFFSET 5.0226 -0.0266342 0
              CHANNELS 3 Zrotation Xrotation Yrotation
              JOINT Head
              {
                OFFSET 6.69364 2.86102e-005 0
                CHANNELS 3 Zrotation Xrotation Yrotation
                End Site
                {
                  OFFSET 0 0 0
                }
              }
            }
          }
        }
      }
    }
  }
}
MOTION
Frames:	14
Frame Time:	0.0416667
29.2899 101.619 15.6272 6.09476 -86.5648 6.92828 -175.137 8.3128 93.0316 -11.0827 0.18722 0.590503 67.4293 0.961131 -5.08626 18.8833 -7.83057 6.9155 175.34 3.32509 91.7818 -3.79229 0.770281 1.87349 63.6596 -1.22713 1.79057 25.8628 0.372677 4.03132 0.536055 5.97593 -89.7405 14.9209 1.18948 0.346112 3.25043 1.20357 0.293411 -19.2878 1.03047 0.687629 0.724818 1.03048 0.687629 102.316 28.2064 -73.955 8.78461 37.0491 -69.4567 -9.57979 50.63 -0.00816046 20.2551 0.50517 -18.0119 -77.4782 17.9175 98.2463 11.2473 -37.401 -78.1009 -172.464 -79.5338 179.938 -23.9065 -0.729063 -1.01293 44.7838 -5.36483 -8.11851 -23.8082 -0.827405 1.22031 
29.0509 101.534 14.5187 5.18204 -85.7375 5.76011 -175.404 10.1078 92.8026 -11.6549 0.094934 0.520336 67.2746 0.772193 -5.06327 18.8063 -8.46543 8.48907 175.044 5.01334 91.6112 -4.14267 0.727087 2.26206 63.8181 -1.38361 1.33955 25.582 0.431996 4.19736 0.535541 6.08148 -89.8406 14.7109 1.1389 0.155384 3.04041 1.14464 0.105095 -19.4981 1.03954 0.490522 0.51452 1.03955 0.490522 102.322 28.1393 -75.6632 11.6009 39.3479 -67.1686 -9.0373 48.6043 -1.0694 19.1354 0.370649 -19.3512 -78.1283 15.4846 94.4701 7.96152 -38.383 -74.1988 -167.246 -85.2562 -176.784 -24.5439 -0.490293 -2.33123 38.5888 -4.76951 -8.03361 -19.2784 -0.872562 1.65137 
28.7885 101.493 13.5158 8.60989 -85.1843 8.83256 -175.433 11.6034 92.6244 -12.1882 0.319242 0.19042 66.9267 0.922751 -4.84246 18.5426 -8.61163 8.41322 174.717 6.47183 91.2684 -4.72972 1.19145 2.56589 63.6839 -1.192 1.46132 26.7855 0.0631693 4.21819 0.421822 6.22195 -89.9444 14.4304 0.862782 -0.010019 2.75972 0.861509 -0.0479912 -19.7776 0.825902 0.249766 0.235064 0.8259 0.249758 102.452 24.4952 -77.3827 22.8238 42.6663 -72.3928 -2.49191 39.1924 -10.4549 17.2729 -0.383288 -23.5949 -77.4369 5.65769 97.8115 -2.09709 -37.8048 -86.6034 -36.1282 -81.3962 -48.4606 -23.8619 -0.224871 -3.6612 29.1558 -4.21317 -8.02496 -13.0354 -1.00265 1.38573 
28.508 101.493 12.4297 10.4973 -85.0308 10.5888 -175.156 12.8543 92.7591 -12.8501 0.978979 -0.336884 66.5659 1.34123 -4.5278 17.8408 -8.9833 8.17032 174.759 7.76796 91.3551 -5.73922 1.69063 2.62794 63.7597 -1.24707 1.70711 25.5231 0.510939 3.83035 0.398117 6.49226 -90.1122 13.8911 0.734431 -0.324444 2.22028 0.719445 -0.356468 -20.3165 0.797978 -0.0887081 -0.303883 0.797983 -0.0887148 102.339 19.3989 -81.9181 32.7113 46.6714 -74.0746 5.18616 26.4201 -23.5205 12.9483 -0.649981 -27.517 -78.0107 -3.20445 96.1294 -12.535 -34.3816 -90.05 -34.5464 -62.8777 -51.1552 -22.6697 0.289469 -6.53105 22.0749 -3.64081 -5.73805 -10.6143 -1.60181 0.0909149 
28.2938 101.447 11.2161 15.4466 -84.8489 14.9232 -174.837 13.9944 92.4806 -13.3261 1.7369 -1.09819 66.1598 1.96002 -4.29469 17.9808 -8.96251 8.35654 174.45 10.0838 90.9164 -8.61887 2.3485 2.7577 64.8069 -1.2844 2.40586 23.0234 1.19136 4.32543 0.3687 6.80472 -90.1259 13.2655 0.67091 -0.336287 1.59468 0.655461 -0.365504 -20.9418 0.740965 -0.119096 -0.929152 0.740961 -0.119096 102.426 12.7745 -80.9781 49.0079 43.2235 -79.6672 8.05355 6.53094 -37.0537 5.3063 -0.320034 -31.5525 -79.9715 -11.2234 90.952 -19.0726 -28.1134 -85.7393 -32.398 -43.2645 -55.9818 -24.0723 1.30476 -11.6401 14.911 -3.49568 -6.12971 -7.84545 -1.81279 1.13045 
28.2027 101.392 9.9071 13.5081 -84.0507 12.7846 -174.689 15.7792 92.2942 -13.8103 2.0197 -1.62185 65.9111 2.60655 -3.99653 18.3347 -8.4214 7.54898 173.953 12.2762 90.7343 -9.64399 1.27111 3.3225 64.4617 -1.33599 1.87722 23.2821 1.28083 3.38982 0.241156 7.16354 -90.3416 12.5467 0.316471 -0.717111 0.87558 0.284617 -0.730345 -21.6587 0.517357 -0.58885 -1.64605 0.517367 -0.588848 100.721 1.08816 -88.6099 41.9176 45.9532 -67.2535 10.6071 -5.27081 -54.1053 1.24751 0.204514 -32.4972 -82.5326 -23.2864 86.64 -15.4125 -22.61 -72.1146 -32.1835 -26.8507 -65.7215 -19.2469 1.34799 -14.0273 11.4291 -1.61457 -2.66052 -8.81066 -0.928287 -0.530581 
28.2058 101.11 8.62602 8.49168 -82.2921 7.39729 -174.456 18.8318 91.8645 -15.124 2.44638 -2.45957 67.3396 4.19151 -3.1043 18.3346 -8.39453 7.47717 173.623 15.889 90.4337 -11.3767 0.905774 3.68356 64.6508 -1.58547 1.49615 24.9902 0.664771 3.87327 0.276498 7.65355 -90.4382 11.5681 0.344888 -0.912659 -0.103078 0.304386 -0.926962 -22.6367 0.603227 -0.766819 -2.62408 0.603226 -0.766835 98.7496 -5.47515 -93.7239 32.2619 43.0003 -46.0656 9.67364 -11.3503 -70.0699 -2.81897 0.984254 -32.1048 -85.8038 -32.3848 81.9067 -10.5931 -15.3838 -58.5751 -25.9859 -17.0476 -71.6008 -18.8047 1.91022 -18.1261 10.1648 -1.35848 -3.58328 -10.3616 -0.636027 1.64253 
28.3165 100.592 7.34194 0.00185142 -79.6379 -1.59253 -173.973 23.3434 91.513 -17.5559 1.89858 -3.54417 68.7833 5.37202 -2.85807 18.6377 -8.32863 7.8249 173.074 21.8408 90.2562 -15.64 -0.580835 4.28992 65.4441 -1.94003 1.46065 25.3413 0.481827 4.35482 0.247715 8.09317 -90.4761 10.6876 0.274095 -0.970291 -0.98364 0.231126 -0.981414 -23.5167 0.553028 -0.843067 -3.50405 0.553026 -0.843067 95.7997 -14.3825 -99.4369 22.7877 32.5987 -30.7731 4.80827 -10.8916 -77.9888 -5.83956 1.41134 -31.0601 -88.7566 -40.8025 78.6162 -1.63569 -7.01773 -45.5547 -24.0756 -15.5094 -75.048 -17.5447 1.88173 -19.1 11.0076 -0.479032 -3.15542 -12.9766 0.0812763 2.01316 
28.4893 99.8698 6.07701 -5.9667 -76.2068 -7.70522 -172.846 29.5215 91.5282 -21.7708 1.47249 -4.92777 68.9186 5.26815 -2.78862 16.9005 -8.82666 6.19329 172.368 28.817 90.7523 -20.5283 -3.14409 5.17442 66.463 -2.78942 0.750969 20.9566 1.65549 5.16304 0.205134 8.57789 -90.5235 9.71776 0.172163 -1.05187 -1.95361 0.125706 -1.05843 -24.4859 0.480316 -0.951506 -4.47329 0.480314 -0.951516 91.9166 -20.8602 -106.419 17.6371 22.9134 -22.7612 5.73885 -5.90285 -74.0136 -5.57843 1.60842 -31.7741 -91.2508 -46.7358 76.0686 3.91682 -0.1383 -37.842 -23.7391 -17.9084 -71.8411 -18.1382 2.23864 -21.0747 13.0321 0.340284 -2.29514 -13.5052 0.706976 2.05812 
28.8298 98.4518 4.82259 -10.6536 -72.3898 -12.242 -171.035 37.4365 91.6708 -28.5543 1.86771 -6.53766 69.423 5.31405 -3.21293 17.6656 -8.88925 7.63531 170.319 36.7686 91.6153 -26.7556 -7.64215 7.3443 67.888 -4.01258 -0.627223 18.9765 2.11278 5.78705 0.28001 9.1267 -90.4921 8.62099 0.340747 -0.995012 -3.0503 0.296625 -1.00906 -25.5834 0.624025 -0.846622 -5.57078 0.624021 -0.846633 90.3437 -23.7673 -108.631 15.8585 13.1198 -25.2262 7.94512 2.84727 -61.2195 -3.03831 1.456 -33.7259 -92.617 -46.711 73.9535 4.85118 3.1569 -37.9513 -20.5238 -21.9487 -60.1185 -20.6201 3.28512 -25.2336 15.3539 0.613859 -2.13053 -12.8945 0.9965 1.96699 
29.1603 96.3317 3.51044 -10.9766 -68.0855 -12.327 -167.346 46.6697 91.0503 -36.4926 4.41629 -8.95024 72.0312 7.12257 -2.52293 15.6762 -9.79298 6.6343 165.319 45.7229 93.8021 -33.7027 -12.7964 10.6641 69.3257 -5.73457 -2.32739 17.7041 2.03568 7.72006 0.440758 9.50242 -90.415 7.87096 0.698764 -0.857779 -3.8001 0.660338 -0.887701 -26.3355 0.924252 -0.608126 -6.32281 0.924247 -0.608122 88.0316 -22.2718 -114.46 13.0116 11.104 -26.3533 7.12495 3.49247 -46.6899 -1.47296 0.997675 -37.0201 -93.4079 -42.96 71.608 3.60207 2.83418 -43.4882 -12.8991 -22.6623 -44.2028 -19.2612 3.35772 -27.2486 17.1865 0.326197 -2.91266 -11.911 0.949344 2.40627 
29.4796 93.266 2.16751 -6.97781 -64.0593 -9.27861 -160.586 56.0771 86.1979 -44.9132 9.12844 -11.1907 74.4032 9.16761 -1.74905 15.02 -10.4065 7.08395 156.757 55.6881 97.8011 -42.7986 -18.1393 13.1243 71.8436 -8.07155 -3.59663 16.3205 2.17702 8.73744 0.507709 9.81583 -90.3397 7.24449 0.867444 -0.709682 -4.42638 0.835366 -0.747183 -26.9632 1.04062 -0.416172 -6.95057 1.04063 -0.416159 87.4645 -20.6822 -116.638 9.76502 10.1193 -30.0975 5.99216 6.37117 -35.9614 0.594485 0.437309 -36.3648 -93.5637 -39.7041 70.3089 2.15428 0.838014 -51.1919 -7.25697 -20.7189 -32.525 -20.0641 3.72639 -28.542 20.146 -0.159187 -2.26767 -11.5644 0.363917 2.33753 
29.4284 89.3413 0.906322 -5.11644 -61.3125 -7.33015 -147.58 64.0496 77.8293 -53.7296 16.718 -13.5664 76.9094 11.8587 -0.23944 13.5223 -10.6526 5.37906 144.365 63.4395 107.218 -52.67 -22.4484 14.2567 74.3477 -10.2841 -4.16418 16.1837 2.28997 8.42484 0.603448 10.2679 -90.3403 6.3409 1.06145 -0.706023 -5.32983 1.02934 -0.752073 -27.868 1.22456 -0.354345 -7.8553 1.22455 -0.354347 86.3092 -19.612 -119.906 4.91802 13.5045 -33.2861 6.14324 10.7608 -27.4476 0.298689 0.783864 -35.3866 -93.127 -36.5778 69.9594 0.934408 -2.35495 -59.1908 -3.69085 -20.5738 -23.6397 -19.4695 3.618 -28.6774 23.8465 -0.35597 -1.56879 -12.2827 0.0795987 1.35717 
29.1824 85.0214 -0.573862 -1.88424 -60.0632 -5.10928 -127.745 68.6621 61.3432 -62.3359 22.8504 -14.4307 78.0379 13.4089 0.0602895 11.36 -11.5003 4.18456 126.471 69.0897 121.923 -63.6073 -25.3849 12.8241 77.4571 -12.6285 -3.82917 15.6773 2.53823 7.98476 0.613098 10.713 -90.3277 5.45044 1.08885 -0.668911 -6.22024 1.05834 -0.716215 -28.7586 1.23953 -0.310709 -8.74601 1.23954 -0.310714 87.4133 -16.948 -119.208 2.07956 16.0795 -37.2488 4.08495 9.34181 -21.6738 2.3652 0.0199315 -35.9372 -92.98 -33.4357 69.0613 1.34195 -5.76909 -66.3138 -0.815551 -19.4089 -15.7889 -23.5871 5.20343 -32.0376 24.8716 -0.983799 -1.06699 -11.8433 -0.65522 1.02328 
